<?xml version="1.0" encoding="UTF-8"?>
<svg id="Layer_2" data-name="Layer 2" xmlns="http://www.w3.org/2000/svg" viewBox="0 0 106.25 83.06" width="106.25" height="83.06">
  <defs>
    <style>
      .cls-1 {
        fill: #efa02e;
      }
    </style>
  </defs>
  <g id="Layer_1-2" data-name="Layer 1">
    <polygon class="cls-1" points="83.06 42.65 106.25 30.23 100.56 24.54 77.52 37.12 59.06 47.2 69.14 28.73 81.71 5.7 76.02 0 63.61 23.2 53.13 42.79 42.65 23.2 30.23 0 24.54 5.7 37.12 28.73 47.2 47.2 28.73 37.12 5.7 24.54 0 30.24 23.2 42.65 42.78 53.13 23.2 63.61 23.83 64.24 24.47 64.88 27.46 67.88 28.1 68.51 28.73 69.14 47.2 59.06 37.12 77.53 37.75 78.16 38.38 78.79 41.38 81.79 42.01 82.43 42.65 83.06 53.13 63.47 63.61 83.06 64.24 82.42 64.88 81.79 67.87 78.79 68.51 78.16 69.14 77.53 59.06 59.06 77.53 69.14 78.16 68.51 78.79 67.87 81.79 64.88 82.42 64.24 83.06 63.61 63.47 53.13 83.06 42.65"/>
  </g>
</svg>